<svg width="1080" height="170" viewBox="0 0 1080 170" fill="none" xmlns="http://www.w3.org/2000/svg">
<g clip-path="url(#clip0_13_3)">
<path d="M0 0C356.4 0 712.8 0 1080 0C1080 56.1 1080 112.2 1080 170C723.6 170 367.2 170 0 170C0 113.9 0 57.8 0 0Z" fill="white"/>
<path d="M30.0001 28C33.1613 29.3698 33.9928 29.9891 36.0001 33C40.1778 32.5358 42.177 32.092 45.0001 29C45.9901 29 46.9801 29 48.0001 29C52.0705 33.7791 51.4346 39.2127 51.4396 45.1426C51.6127 52.2158 53.5788 57.2346 58.254 62.5742C59.0159 63.2716 59.7777 63.969 60.5626 64.6875C65.8431 69.5584 68.757 73.8081 69.1759 81.0312C69.221 82.1759 69.2661 83.3206 69.3126 84.5C69.7046 90.4978 70.8718 95.5416 72.9533 101.16C74.2818 104.764 75.2846 108.432 76.2892 112.137C76.8357 114.2 76.8357 114.2 79.0001 115C80.6416 115.146 82.2899 115.221 83.9376 115.25C84.8129 115.276 85.6882 115.302 86.59 115.328C88.9826 115.169 88.9826 115.169 90.6837 113.957C92.6508 111.033 93.3248 107.821 94.1251 104.438C95.9176 97.1651 95.9176 97.1651 97.0001 95C97.0752 93.2144 97.1462 91.4285 97.1886 89.6418C97.4536 80.4151 98.9568 73.3544 105.438 66.375C106.283 65.5913 107.129 64.8075 108 64C114.16 56.6484 114.16 56.6484 116.309 47.5938C116.334 46.7675 116.359 45.9412 116.385 45.0898C116.42 43.3634 116.451 41.6368 116.479 39.9102C116.727 32.1421 116.727 32.1421 120 29C122.513 29.4333 123.715 29.678 125.438 31.625C126.958 33.2774 126.958 33.2774 129.438 32.9375C132.441 31.8389 133.918 30.39 136 28C139.161 29.3698 139.993 29.9891 142 33C145.735 32.502 147.812 32.1251 151 30C153.188 30.375 153.188 30.375 155 31C155.569 37.9441 154.367 42.2331 151.192 48.4219C148.359 54.5518 147.955 60.9242 150.117 67.2891C150.802 69.126 150.802 69.126 151.5 71C156.064 83.7058 154.668 94.2334 150.137 106.684C147.257 115.084 149.42 120.563 152.851 128.459C155.047 133.644 155.584 137.449 155 143C154.01 143.33 153.02 143.66 152 144C150.315 143.031 148.648 142.03 147 141C146.01 141 145.02 141 144 141C142.283 143.445 142.283 143.445 141 146C137.839 144.63 137.007 144.011 135 141C132.038 141.613 130.62 142.254 128 144C127.01 144 126.02 144 125 144C124.469 139.111 125.104 136.445 127.5 132.125C130.094 127.204 131.168 123.508 130 118C129.191 115.981 128.333 113.982 127.438 112C124.994 106.524 124.223 102.768 126 97C126.598 95.6335 127.224 94.2795 127.875 92.9375C129.959 88.6314 130.928 84.3573 131.813 79.6875C131.948 78.9933 132.084 78.299 132.224 77.5837C132.839 74.1339 133.258 71.3275 132 68C130.542 67.946 129.084 67.9072 127.625 67.875C126.813 67.8518 126.001 67.8286 125.164 67.8047C122.787 67.7863 122.787 67.7863 121 70C118.159 77.3965 116.75 84.5152 116.438 92.375C115.927 103.587 113.636 107.995 105.277 115.703C102.04 118.968 100.772 121.562 100.692 126.152C100.666 126.929 100.641 127.706 100.615 128.506C100.58 130.123 100.549 131.74 100.522 133.357C100.362 138.062 99.9458 141.112 97.0001 145C94.5321 143.848 92.9523 142.952 91.0001 141C90.0101 141 89.0201 141 88.0001 141C86.283 143.445 86.283 143.445 85.0001 146C83.5151 145.505 83.5151 145.505 82.0001 145C80.8126 142.438 80.8126 142.438 80.0001 140C77.3711 141.522 75.1565 142.844 73.0001 145C72.0101 145 71.0201 145 70.0001 145C67.8911 140.725 67.9034 137.407 68.1251 132.688C68.2485 126.611 68.0042 121.805 64.0001 117C62.695 115.802 61.3595 114.636 60.0001 113.5C55.9101 110.073 53.3257 107.255 52.0001 102C51.7431 98.5948 51.5958 95.2116 51.5023 91.7993C51.226 85.0846 49.9948 72.9947 45.0001 68C43.4808 67.9282 41.9585 67.9161 40.4376 67.9375C39.6113 67.9465 38.7851 67.9555 37.9337 67.9648C37.2956 67.9764 36.6576 67.988 36.0001 68C33.8665 76.2562 35.8346 85.2035 39.6251 92.6875C42.349 98.1837 43.0502 102.932 42.0001 109C41.0966 111.067 40.0272 112.953 38.9103 114.91C37.0649 119.147 37.2261 123.51 38.0001 128C39.1241 130.481 40.4223 132.691 41.8868 134.984C43.3938 137.713 43.3913 139.949 43.0001 143C41.5151 143.495 41.5151 143.495 40.0001 144C38.3335 143 36.6668 142 35.0001 141C31.601 142.133 30.9476 143.125 29.0001 146C25.839 144.63 25.0074 144.011 23.0001 141C21.9173 141.464 21.9173 141.464 20.8126 141.938C18.1971 142.926 15.7489 143.529 13.0001 144C12.3798 137.893 13.04 133.398 15.5001 127.75C19.2178 118.737 19.4518 110.268 16.0001 101.125C13.1394 93.4828 12.2805 84.1516 14.9064 76.2852C15.6323 74.727 16.3602 73.1697 17.09 71.6133C20.3275 62.3177 18.2302 53.41 14.1134 44.875C12.3327 40.2765 12.5705 35.8501 13.0001 31C14.879 30.4062 14.879 30.4062 17.0001 30C17.6395 30.495 18.2789 30.99 18.9376 31.5C20.9123 33.2558 20.9123 33.2558 23.5001 32.9375C26.4537 31.8299 27.9458 30.3587 30.0001 28Z" fill="#2196F3"/>
<path d="M227.645 52.1914C231.591 53.5461 235.035 55.8568 238.549 58.071C243.741 61.2056 248.144 61.7431 254.215 61.8906C257.919 62.0361 260.087 62.6843 263 65C266.089 69.24 267.23 73.8083 268.312 78.875C269.793 85.3907 272.957 89.7954 277 95C278.505 98.0095 278.424 99.6086 278 103C275.909 107.195 273.511 111.277 270.414 114.809C268.049 118.474 267.569 122.825 266.803 127.068C265.953 131.026 265.14 132.843 262.363 135.953C258.482 138.315 255.411 138.672 251 138.812C242.916 139.367 237.718 141.833 231.051 146.32C227.582 148.23 225.893 148.597 222 148C219.211 146.539 219.211 146.539 216.375 144.625C210.272 140.866 205.035 139.776 198 139C196.329 138.76 194.661 138.492 193 138.187C192.319 138.078 191.639 137.968 190.938 137.855C187.949 136.536 186.764 134.722 185 132C183.98 128.582 183.98 128.582 183.188 124.812C181.751 118.632 179.529 114.035 175.586 109.051C173.022 105.735 172.026 103.736 171.875 99.5C172.49 95.3748 174.393 92.7852 176.812 89.4375C181.047 83.5155 182.539 78.3628 183.918 71.3476C185.193 67.4028 186.862 65.6504 190 63C192.764 61.6179 195.096 61.9619 198.188 61.9375C204.418 61.5793 208.464 60.0756 213.812 56.9375C222.843 51.75 222.843 51.75 227.645 52.1914Z" fill="#2196F3"/>
<path d="M827 53C829.554 54.2268 831.759 55.4335 834.125 56.9375C840.505 60.7059 845.532 61.6862 853.019 61.8047C857.213 62.0795 858.981 63.1494 862 66C864.25 69.376 864.537 71.587 865.187 75.5625C866.441 81.8108 868.438 85.9487 872.378 90.914C874.937 94.2065 876.397 96.7734 876.125 101C875.544 105.399 873.768 108.059 871.187 111.625C866.92 117.542 865.417 122.729 863.984 129.75C862.914 133.282 861.84 134.71 859 137C856.506 138.247 854.234 138.21 851.489 138.393C842.487 139.074 836.522 141.292 829.05 146.32C825.539 148.253 823.941 148.631 820 148C817.483 146.77 815.228 145.543 812.875 144.062C805.581 139.58 800.713 138.861 792.191 138.574C788.212 137.858 786.707 137.015 784 134C782.727 131.038 781.935 127.99 781.125 124.875C779.476 119.03 777.931 114.225 774.125 109.375C771.292 105.694 769.866 103.174 770.238 98.4609C771.617 94.0047 774.396 90.3433 776.964 86.4883C779.759 82.0209 780.915 77.1893 782.113 72.0937C783.015 68.9474 784.105 66.6597 786 64C789.858 62.0213 793.5 61.9002 797.75 61.6875C805.132 61.1831 810.609 58.3411 816.625 54.1875C820.042 52.4789 823.284 52.5011 827 53Z" fill="#363636"/>
<path d="M599 26C601.099 27.2256 603.081 28.5749 605.09 29.9414C607.092 31.2525 607.092 31.2525 610.125 31C613.098 30.048 613.098 30.048 616.062 28.375C619 27 619 27 621.438 26.9375C624 28 624 28 625.27 29.4141C627.582 31.989 629.431 33.778 632.978 34.2798C637.995 34.5354 642.99 34.3043 648 34C647 37 647 37 644 39C644 39.99 644 40.98 644 42C646.445 43.7171 646.445 43.7171 649 45C648 48 648 48 645 50C645.573 52.8672 645.861 53.8614 648 56C647.625 58.125 647.625 58.125 647 60C644.301 59.6358 643.261 59.3312 641.543 57.1523C641.096 56.4214 640.648 55.6905 640.188 54.9375C637.724 51.3798 637.724 51.3798 633.438 50.375C630.335 50.9391 627.886 51.7847 625 53C621.782 53.3877 620.426 53.2924 617.719 51.4336C616.238 50.1017 614.759 48.7684 613.281 47.4336C611.086 45.7457 611.086 45.7457 608.438 46.1523C606.177 46.9385 604.474 47.7937 602.5 49.125C599 51 599 51 596.375 51C594 50 594 50 591.438 47.875C589.248 45.8127 589.248 45.8127 587 45.9375C584.735 46.9903 584.735 46.9903 582.688 49.625C580 52 580 52 576.5 51.875C575.345 51.5862 574.19 51.2975 573 51C571.335 50.6602 569.668 50.3256 568 50C569.043 60.7364 569.043 60.7364 574 70C579.838 73.8334 585.088 75.1244 592.047 74.9922C593.464 74.9747 594.88 74.9577 596.297 74.9414C598.52 74.9106 600.742 74.8752 602.965 74.8286C605.117 74.7859 607.269 74.7627 609.422 74.7422C611.349 74.7091 611.349 74.7091 613.315 74.6753C619.109 75.1858 623.622 77.3526 628.125 81.0625C632.466 84.5694 636.869 87.9768 641.307 91.3596C654.231 101.266 654.231 101.266 655.316 107.949C655.671 113.96 653.362 117.052 649.645 121.691C645.594 126.893 642.583 132.357 639.613 138.242C638 141 638 141 635 143C632.922 143.132 632.922 143.132 630.535 142.984C629.658 142.947 628.781 142.91 627.877 142.871C626.484 142.811 626.484 142.811 625.062 142.75C616.795 142.53 611.462 143.136 604.473 147.785C601.186 149.4 599.478 148.997 596 148C593.727 146.773 593.727 146.773 591.625 145.375C586.844 142.582 584.334 142.666 579 144C577.67 144.557 577.67 144.557 576.312 145.125C573.364 146.241 572.007 145.887 569 145C566.797 143.406 566.797 143.406 564.75 141.5C563.721 140.556 563.721 140.556 562.672 139.594C561.773 138.737 560.878 137.878 560 137C557.141 136.763 554.301 136.578 551.438 136.438C550.228 136.373 550.228 136.373 548.994 136.307C546.996 136.2 544.998 136.1 543 136C543 132 543 132 544.438 130.438C544.953 129.963 545.469 129.489 546 129C546.33 128.01 546.66 127.02 547 126C545.35 125.34 543.7 124.68 542 124C542 122.68 542 121.36 542 120C543.485 119.01 543.485 119.01 545 118C544.49 114.227 543.793 112.55 541 110C541 109.34 541 108.68 541 108C543.336 107.688 543.336 107.688 546 108C547.352 110.188 547.352 110.188 548.625 113C550.282 115.93 550.282 115.93 553 118C556.902 118.647 560.803 118.166 564.726 117.873C570.851 117.574 574.197 118.492 578.812 122.562C579.685 123.409 580.558 124.256 581.457 125.129C583.896 127.331 583.896 127.331 587.137 126.875C590.097 126.066 590.097 126.066 593 124.438C596.406 122.806 598.274 122.445 602 123C602.846 123.681 603.691 124.361 604.562 125.062C606.816 127.253 606.816 127.253 609.562 127.062C612.226 126.172 612.226 126.172 613.625 123.438C616 121 616 121 618.695 120.672C621.479 120.686 624.225 120.785 627 121C626.701 118.658 626.367 116.332 626 114C625.889 113.255 625.778 112.51 625.664 111.742C624.679 106.258 623.234 102.874 619 99C611.759 94.4063 604.906 94.2732 596.625 95.5C587.213 96.7982 577.821 97.096 569.785 91.4414C568.155 90.1371 566.547 88.8054 564.957 87.4531C560.634 83.8664 556.085 80.5901 551.533 77.301C545.292 72.703 540.789 68.1593 539.312 60.375C539.413 54.9874 543.104 52.107 546.68 48.4531C549.708 45.2511 551.807 41.7938 554 38C557.62 32.1899 557.62 32.1899 560 31C561.637 30.9745 563.275 31.0105 564.91 31.0781C565.901 31.1039 566.891 31.1297 567.912 31.1562C569.986 31.2179 572.059 31.2957 574.131 31.3906C580.569 31.5235 584.698 30.7261 590.103 27.146C593.243 25.2489 595.45 25.3546 599 26Z" fill="#363636"/>
<path d="M1022.94 52.293C1025.67 53.229 1027.66 54.7544 1030 56.4375C1035.5 60.2881 1039.91 60.7729 1046.43 60.6482C1049.81 60.6285 1051.88 60.9335 1054.86 62.5742C1057.59 65.6722 1058.07 68.0896 1058.88 72.125C1060.48 79.2962 1063.39 84.2467 1068 90C1069.61 93.2145 1069.06 96.4361 1069 100C1067.35 100.66 1065.7 101.32 1064 102C1064.99 104.97 1064.99 104.97 1066 108C1061.75 107.645 1058.7 106.989 1054.94 104.937C1051.36 103.075 1049.09 102.248 1045 103C1043.54 103.8 1042.11 104.638 1040.69 105.5C1036.01 108.238 1032.35 109.171 1027 108C1024.4 106.824 1021.92 105.489 1019.4 104.133C1015.76 102.415 1012.91 102.051 1009 103C1005.53 104.445 1002.26 106.131 999 108C999 110.97 999 113.94 999 117C1000.94 118.157 1000.94 118.157 1003.1 118C1007.39 118 1010.03 118.099 1013.26 121.102C1014.6 122.747 1015.89 124.435 1017.11 126.164C1017.74 126.77 1018.36 127.376 1019 128C1022.21 127.844 1023.76 127.161 1026.44 125.375C1029 124 1029 124 1032.13 124.125C1035 125 1035 125 1036.56 126.625C1037.95 128.274 1037.95 128.274 1040.38 128C1043.78 126.704 1045.59 124.683 1048 122C1049.33 122.464 1049.33 122.464 1050.69 122.937C1053.47 123.829 1056.13 124.494 1059 125C1059.74 124.01 1060.49 123.02 1061.25 122C1062.52 120.312 1062.52 120.312 1064 119C1065.32 119 1066.64 119 1068 119C1067.48 123.379 1066.94 127.688 1066 132C1064.68 132.33 1063.36 132.66 1062 133C1062 133.66 1062 134.32 1062 135C1062.66 135.495 1063.32 135.99 1064 136.5C1064.66 136.995 1065.32 137.49 1066 138C1066 138.66 1066 139.32 1066 140C1065.2 139.847 1064.41 139.693 1063.59 139.535C1057.44 138.4 1057.44 138.4 1051.87 140.492C1050.4 142.263 1049.14 143.999 1048 146C1044.63 145.453 1042.92 144.945 1040 143C1037.59 142.416 1037.59 142.416 1035 143C1034.22 143.846 1033.43 144.691 1032.63 145.562C1030 148 1030 148 1026.94 148.25C1023.31 147.473 1020.69 145.529 1017.63 143.5C1011.66 139.797 1006.81 139.22 999.964 139.264C995.189 139.268 992.024 138.613 988 136C986.645 134.309 986.645 134.309 985.813 132.437C985.494 131.731 985.176 131.025 984.848 130.297C983.981 127.949 983.364 125.613 982.75 123.187C981.24 117.705 978.223 113.778 974.742 109.348C972.041 105.707 971.431 102.151 971.446 97.6367C972.168 94.2022 973.736 92.1935 975.813 89.375C980.202 83.3765 981.266 78.5509 982.137 71.3476C983.193 67.2508 984.752 65.6444 988 63C991.394 61.8687 994.436 61.6891 998 61.375C1004.78 60.6509 1008.97 58.4537 1014.59 54.5156C1017.53 52.6643 1019.48 51.9936 1022.94 52.293Z" fill="#363636"/>
<path d="M354.441 52.5938C357.64 53.1017 358.649 54.1859 360.937 56.4375C366.026 60.7184 370.575 60.7971 377.058 60.832C380 61 380 61 382 63C382.124 65.1848 382.175 67.3741 382.187 69.5625C382.523 76.2601 384.131 79.1731 388.527 84.0469C390 86 390 86 390.187 89.6875C389 93 389 93 386.875 96C384.69 98.905 384.69 98.905 385 102.5C385.81 106.089 385.81 106.089 388.125 108.938C390.32 112.524 390.352 114.108 389.628 118.121C388.704 120.881 386.824 122.763 385 125C384.383 128.151 384.371 130.019 386.128 132.762C387.038 133.956 387.957 135.142 388.886 136.32C390.392 138.593 390.402 140.345 390 143C387.132 142.427 386.138 142.139 384 140C382.68 140 381.36 140 380 140C379.01 141.98 379.01 141.98 378 144C376.68 144 375.36 144 374 144C373.34 142.68 372.68 141.36 372 140C368.069 140.575 368.069 140.575 365 143C364.01 143 363.02 143 362 143C362.363 139.18 362.906 137.135 365.125 133.938C367.224 131.23 367.224 131.23 367 128.5C366.035 125.812 366.035 125.812 363.937 123.062C361.692 119.514 361.245 118.109 362 114C363.164 112.277 363.164 112.277 364.562 110.5C366.582 107.895 366.993 107.318 367.062 103.875C366.148 100.88 366.148 100.88 363.875 98.5625C362 96 362 96 362.125 92.375C363 89 363 89 365 86C365 85.01 365 84.02 365 83C363.112 82.8144 363.112 82.8144 361.187 82.625C358.98 82.1094 358.98 82.1094 357 81C355.366 77.7861 354.626 74.5369 354 71C353.48 71.3725 352.961 71.7451 352.425 72.1289C346.719 76 346.719 76 343.187 76C340.886 74.9479 339.693 73.8477 338 72C337.01 71.67 336.02 71.34 335 71C334.01 73.97 333.02 76.94 332 80C328.7 80 325.4 80 322 80C322.33 81.32 322.66 82.64 323 84C323.542 88.7018 323.096 91.2 320.437 95C318.39 98.0125 318.003 98.8054 317.937 102.625C318.855 106.098 318.855 106.098 321.062 109.062C323.368 112.559 323.738 113.895 323 118C321.798 120.108 320.473 122.103 319.132 124.125C317.859 126.022 317.859 126.022 317.375 128.562C318.189 131.738 319.894 133.721 321.886 136.285C323.376 138.58 323.404 140.331 323 143C320.132 142.427 319.138 142.139 317 140C315.68 140 314.36 140 313 140C312.34 141.32 311.68 142.64 311 144C309.68 144 308.36 144 307 144C306.34 142.68 305.68 141.36 305 140C301.442 140.61 298.317 141.578 295 143C293.388 137.175 293.388 137.175 295.046 133.988C295.505 133.291 295.964 132.594 296.437 131.875C299.952 126.112 299.904 120.575 299 114C298.118 111.349 297.054 108.871 295.91 106.324C293.972 101.376 294.126 97.1378 296.128 92.2383C297.011 90.3953 297.934 88.571 298.906 86.7734C300.773 82.0386 300.549 78.3879 298.687 73.6836C298.13 72.6124 297.573 71.5412 297 70.4375C294.698 65.9998 293.637 63.022 294 58C298.673 58 300.823 59.0724 305 61C305.66 59.35 306.32 57.7 307 56C308.32 56 309.64 56 311 56C311.66 57.32 312.32 58.64 313 60C316.328 59.4262 317.698 58.4062 320 56C320.66 56 321.32 56 322 56C321.01 58.97 320.02 61.94 319 65C320.32 65.33 321.64 65.66 323 66C322 69 322 69 320 70.0625C319.01 70.5266 319.01 70.5266 318 71C317.67 71.66 317.34 72.32 317 73C322.445 71.515 322.445 71.515 328 70C328.288 68.3913 328.577 66.7825 328.875 65.125C329.75 60.25 329.75 60.25 332 58C334.07 58.1737 336.133 58.438 338.187 58.75C342.918 59.3175 342.918 59.3175 347.238 57.7383C349.009 56.116 349.009 56.116 350.437 54.3477C352 53 352 53 354.441 52.5938Z" fill="#2196F3"/>
<path d="M711 27C711.66 27.33 712.32 27.66 713 28C712.916 28.8546 712.832 29.7093 712.746 30.5898C712.644 31.6946 712.542 32.7993 712.438 33.9375C712.333 35.0396 712.229 36.1418 712.121 37.2773C712.081 38.1758 712.041 39.0743 712 40C712.495 40.495 712.495 40.495 713 41C713.312 43.375 713.312 43.375 713 46C711 47.8125 711 47.8125 709 49C709.082 51.7842 709.605 53.5338 711.414 55.668C714.239 58.2874 716.263 59.8345 720.062 60.6875C723.262 60.171 723.262 60.171 726.062 57.4375C729 55 729 55 731.625 54.9375C734 56 734 56 736 58.0625C737.841 60.1761 737.841 60.1761 740.375 60.5625C744.196 59.7437 746.06 57.5561 749 55C749.99 55 750.98 55 752 55C751.711 55.5569 751.423 56.1137 751.125 56.6875C749.959 59.0849 748.966 61.516 748 64C749.65 64.66 751.3 65.32 753 66C753 66.66 753 67.32 753 68C751.02 68.99 751.02 68.99 749 70C749.628 72.9288 750.586 75.361 752 78C748.624 77.6142 747.137 77.1168 744.5 74.875C742.179 72.7438 742.179 72.7438 739.438 73C736.863 73.8665 736.863 73.8665 735 76.0625C733 78 733 78 730.625 78.5625C728 78 728 78 725.125 75.4375C722.168 72.6266 722.168 72.6266 718.25 72.9375C714.953 73.6335 714.953 73.6335 713.812 75.875C713.544 76.5763 713.276 77.2775 713 78C712.299 78.4744 711.598 78.9487 710.875 79.4375C708.781 80.8646 708.781 80.8646 708.438 83.375C709.224 87.0433 711.233 88.5788 714 91C712.982 93.2707 712.226 94.8078 710.312 96.4375C708.715 97.9798 708.715 97.9798 709.125 100.5C709.78 103.05 709.78 103.05 711.625 104.375C713 106 713 106 712.812 109.375C712.122 112.457 711.303 115.134 710 118C711.217 118 712.434 118 713.688 118C716.602 118.326 717.668 118.628 719.645 120.848C720.876 122.86 721.99 124.869 723 127C726.344 126.276 728.343 125.183 731 123C734.161 124.37 734.993 124.989 737 128C737.66 128 738.32 128 739 128C739.99 126.02 740.98 124.04 742 122C742.557 122.309 743.114 122.619 743.688 122.938C746.186 124.085 748.263 124.719 751 125C751.99 124.34 752.98 123.68 754 123C754.99 123 755.98 123 757 123C757 123.66 757 124.32 757 125C756.01 125.495 756.01 125.495 755 126C755 127.98 755 129.96 755 132C753.35 132.66 751.7 133.32 750 134C751.204 136.494 752.454 138.681 754 141C748.555 140.505 748.555 140.505 743 140C742.01 141.98 741.02 143.96 740 146C737.133 145.427 736.139 145.139 734 143C732.68 143 731.36 143 730 143C728.21 145.427 728.21 145.427 727 148C723.093 147.756 721.381 146.495 718.625 143.938C713.608 139.855 708.368 140.747 702.293 141.277C699 141 699 141 697.125 138.805C696.099 136.248 695.39 133.875 694.812 131.188C693.376 125.913 690.717 123.295 686.547 119.887C685 118 685 118 685.137 115.426C686 113 686 113 688.062 110.5C690.137 108.184 690.137 108.184 690.562 105.562C690.143 102.69 690.143 102.69 687.438 100C685 97 685 97 684.938 94.375C686 92 686 92 688.125 90.125C690.386 88.0349 690.386 88.0349 690 84.5C688.916 80.7058 687.751 79.6622 685 77C684.75 74.25 684.75 74.25 685 72C682.975 73.9325 681.579 75.6316 680 78C677.18 78.293 677.18 78.293 673.875 78.1875C672.231 78.1469 672.231 78.1469 670.555 78.1055C669.29 78.0533 669.29 78.0533 668 78C670 74 670 74 672 70C670.35 69.01 668.7 68.02 667 67C668.634 65.2916 669.869 64.0655 672 63C670.796 60.5064 669.546 58.3186 668 56C672 57 672 57 676 58C676.66 57.01 677.32 56.02 678 55C679.938 55.8125 679.938 55.8125 682 57C682.33 57.99 682.66 58.98 683 60C683.66 60 684.32 60 685 60C685.289 59.1956 685.577 58.3913 685.875 57.5625C687 55 687 55 689 54C688.01 53.67 687.02 53.34 686 53C687 50 687 50 689.062 48.8125C689.702 48.5444 690.341 48.2763 691 48C689.35 46.35 687.7 44.7 686 43C689.3 43 692.6 43 696 43C696.33 40.36 696.66 37.72 697 35C700.3 35 703.6 35 707 35C708.32 32.36 709.64 29.72 711 27Z" fill="#363636"/>
<path d="M472 55C475 56 475 56 476.188 58.0625C476.456 58.7019 476.724 59.3413 477 60C480.328 59.4262 481.699 58.4062 484 56C484.66 56 485.32 56 486 56C485.916 56.6033 485.833 57.2066 485.746 57.8281C485.645 58.6274 485.543 59.4266 485.438 60.25C485.333 61.0389 485.229 61.8278 485.121 62.6406C485 65.0053 485.304 66.7511 486 69C485.34 69.4538 484.68 69.9075 484 70.375C483.34 70.9113 482.68 71.4475 482 72C482 72.66 482 73.32 482 74C485.241 73.7054 487.48 73.3571 490.188 71.5C492.749 67.9671 493.824 64.1695 495 60C495.953 60.058 496.905 60.116 497.887 60.1758C505.507 60.8021 505.507 60.8021 511.938 57.5C512.618 56.675 513.299 55.85 514 55C518.276 54.4749 521.338 54.656 525 57C524.34 58.32 523.68 59.64 523 61C522.34 61 521.68 61 521 61C522.37 64.1612 522.989 64.9927 526 67C525.688 68.875 525.688 68.875 525 71C524.01 71.66 523.02 72.32 522 73C522.495 73.8972 522.495 73.8972 523 74.8125C524 77 524 77 524 80C518.375 80.25 518.375 80.25 515 78C512.843 78.3479 511.104 78.9516 509.125 79.875C506.398 80.0354 505.811 79.2795 503.75 77.5625C502.843 76.7169 501.935 75.8713 501 75C500.711 75.7631 500.423 76.5263 500.125 77.3125C499 80 499 80 497 83C494.03 82.01 491.06 81.02 488 80C488.103 80.9488 488.206 81.8975 488.313 82.875C488.349 86.5002 487.231 88.7827 485.5 91.9375C482.948 96.7223 482.178 99.6107 483 105C483.66 105.825 484.32 106.65 485 107.5C487.315 110.394 487.571 112.351 487.406 116.027C486.767 119.13 484.742 121.387 483 124C482.389 126.967 482.606 128.893 483 132C484.294 133.698 485.625 135.367 487 137C487.25 140.313 487.25 140.313 487 143C483.667 141.667 480.334 140.333 477 139C476.34 140.65 475.68 142.3 475 144C473.68 144 472.36 144 471 144C470.34 142.68 469.68 141.36 469 140C465.442 140.61 462.317 141.578 459 143C458.492 137.607 459.084 134.38 461.5 129.5C463.771 124.778 465.264 121.202 464 116C463.209 114.169 462.371 112.357 461.5 110.563C459.05 105.466 457.805 101.609 459 96C460.192 92.9008 461.524 89.8839 462.867 86.8477C464.528 82.6737 464.721 80.4713 464 76C462.797 73.4566 461.47 71.0077 460.114 68.543C458.368 64.555 458.654 61.295 459 57C464 59 464 59 469 61C469.31 60.1956 469.619 59.3913 469.938 58.5625C471 56 471 56 472 55Z" fill="#2196F3"/>
<path d="M906 55C909 56 909 56 910.188 58.0625C910.456 58.7019 910.724 59.3413 911 60C914.329 59.4262 915.699 58.4062 918 56C918.66 56 919.32 56 920 56C919.917 56.6033 919.833 57.2066 919.746 57.8281C919.645 58.6274 919.543 59.4266 919.438 60.25C919.333 61.0389 919.229 61.8278 919.121 62.6406C919 65.0053 919.304 66.7511 920 69C919.34 69.4538 918.68 69.9075 918 70.375C917.34 70.9113 916.68 71.4475 916 72C916 72.66 916 73.32 916 74C919.242 73.7054 921.48 73.3571 924.188 71.5C926.749 67.9671 927.824 64.1695 929 60C929.953 60.058 930.906 60.116 931.887 60.1758C939.507 60.8021 939.507 60.8021 945.938 57.5C946.619 56.675 947.299 55.85 948 55C952.276 54.4749 955.338 54.656 959 57C958.34 58.32 957.68 59.64 957 61C956.34 61 955.68 61 955 61C956.37 64.1612 956.989 64.9927 960 67C959.67 68.32 959.34 69.64 959 71C957.68 71.33 956.36 71.66 955 72C955 73.32 955 74.64 955 76C955.99 76.33 956.98 76.66 958 77C958 77.99 958 78.98 958 80C952.375 80.25 952.375 80.25 949 78C946.845 78.3477 945.022 78.9914 943 79.8125C942.34 79.8744 941.68 79.9363 941 80C938.875 78.0625 938.875 78.0625 937 76C936.34 76 935.68 76 935 76C933.68 78.31 932.36 80.62 931 83C926.545 82.01 926.545 82.01 922 81C921.908 82.98 921.908 82.98 921.813 85C921.428 88.7762 920.563 91.0349 918.375 94.125C916.339 97.0994 916.003 97.8269 915.938 101.625C916.849 105.093 916.849 105.093 919.063 108C921.506 111.783 921.689 113.563 921 118C919.836 120.012 919.836 120.012 918.438 122.063C916.536 124.861 916.006 125.691 915.938 129.188C916.872 132.119 916.872 132.119 919.063 134.5C921.432 137.557 921.351 139.227 921 143C919.918 142.536 919.918 142.536 918.813 142.063C916.197 141.074 913.749 140.471 911 140C910.34 141.32 909.68 142.64 909 144C907.68 144 906.36 144 905 144C904.34 142.68 903.68 141.36 903 140C899.443 140.61 896.318 141.578 893 143C892.565 137.517 892.551 134.211 895.5 129.5C898.324 124.821 899.087 121.39 898 116C896.804 112.647 895.471 109.365 894.133 106.066C892.256 100.986 891.93 97.5033 894.133 92.3516C895.043 90.4537 895.955 88.5566 896.868 86.6602C898.606 82.5768 898.703 80.4288 898 76C896.799 73.4556 895.47 71.0079 894.114 68.543C892.368 64.555 892.654 61.295 893 57C898 59 898 59 903 61C903.31 60.1956 903.619 59.3913 903.938 58.5625C905 56 905 56 906 55Z" fill="#363636"/>
<path d="M213 72C215.587 72.3497 217.64 72.8024 219.938 74.0625C222.816 75.3709 224.862 75.3138 228 75C229.031 74.4844 230.062 73.9688 231.125 73.4375C234 72 234 72 236.043 72.1094C238.845 73.3848 239.106 74.982 240.188 77.8125C242.093 82.017 243.417 83.6645 247.75 85.3125C248.523 85.5896 249.297 85.8668 250.094 86.1523C252 87 252 87 253.25 89.375C253 92 253 92 251.5 94.9375C249.705 98.6016 249.907 100.133 251 104C251.351 104.681 251.701 105.361 252.062 106.062C253.232 108.48 253.147 110.349 253 113C251.544 113.671 250.085 114.337 248.625 115C247.813 115.371 247.001 115.743 246.164 116.125C244 117 244 117 242 117C241.807 117.626 241.613 118.253 241.414 118.898C241.154 119.716 240.893 120.533 240.625 121.375C240.242 122.593 240.242 122.593 239.852 123.836C239 126 239 126 237 128C234.365 127.723 232.389 127.213 230.062 125.938C227.196 124.635 225.119 124.682 222 125C221.154 125.516 220.309 126.031 219.438 126.562C217 128 217 128 214.438 128.188C210.616 126.326 209.421 122.883 208 119C208 118.34 208 117.68 208 117C207.374 116.807 206.747 116.613 206.102 116.414C205.284 116.154 204.467 115.893 203.625 115.625C202.813 115.37 202.001 115.115 201.164 114.852C199 114 199 114 197 112C197.279 109.347 197.748 107.42 199.125 105.125C200.462 101.878 199.723 99.3721 199 96C198.629 95.2987 198.257 94.5975 197.875 93.875C196.623 91.1931 197.061 89.7698 198 87C200.145 85.7344 200.145 85.7344 202.812 84.75C207.004 82.8818 208.76 81.5006 210.562 77.25C211.052 75.8367 211.533 74.4208 212 73C212.33 72.67 212.66 72.34 213 72Z" fill="white"/>
<path d="M834.008 72.1094C836.847 73.3786 837.095 74.9541 838.188 77.8125C840.088 81.9833 841.508 83.7607 845.75 85.5625C847.163 86.0516 848.579 86.5333 850 87C850.495 87.495 850.495 87.495 851 88C850.621 92.0979 850.307 94.5396 848 98C848.256 101.011 848.674 103.368 850.062 106.063C851.233 108.483 851.065 110.342 851 113C850.336 113.257 849.672 113.513 848.988 113.777C842.742 116.486 839.792 118.785 837.133 125.109C836 127 836 127 834.047 127.855C830.921 128.076 828.766 126.383 826 125C822.309 124.548 820.631 124.615 817.438 126.563C815 128 815 128 812.438 128.25C809.408 126.696 809.385 125.804 808.25 122.688C807.114 119.73 806.506 118.328 803.82 116.586C802.241 115.925 800.642 115.31 799.023 114.754C797 114 797 114 795 112C795.277 109.365 795.787 107.389 797.062 105.063C798.365 102.196 798.318 100.119 798 97C797.484 96.1544 796.969 95.3088 796.438 94.4375C795 92 795 92 795.109 89.4883C796 87 796 87 798.145 85.7344C799.025 85.4096 799.905 85.0847 800.812 84.75C805.03 82.8735 806.789 81.4529 808.625 77.1875C809.117 75.8033 809.588 74.4103 810 73C815.514 72.7494 815.514 72.7494 817.938 74C821.06 75.5138 823.58 75.3 827 75C832.146 72.008 832.146 72.008 834.008 72.1094Z" fill="white"/>
<path d="M423 55C426.162 56.3698 426.993 56.9891 429 60C432.344 59.4427 435.034 58.6483 438 57C439 58 439 58 439.25 60.7305C438.966 64.4539 437.996 66.1943 436 69.3125C433.098 74.3882 431.716 78.2031 433 84C433.871 86.1734 434.846 88.1558 436.028 90.1758C438.469 94.7548 438.727 99.9362 438 105C437.234 106.862 436.396 108.696 435.5 110.5C433.071 115.513 431.623 119.47 433 125C434.456 127.886 436.067 130.632 437.731 133.402C439.552 137.128 439.208 139.12 438 143C436.918 142.536 436.918 142.536 435.813 142.062C433.197 141.074 430.749 140.471 428 140C427.34 141.32 426.68 142.64 426 144C424.68 144 423.36 144 422 144C421.34 142.68 420.68 141.36 420 140C416.443 140.61 413.318 141.578 410 143C409.512 137.729 409.913 134.719 412.5 130.062C415.101 125.188 416.184 121.472 415 116C413.811 113.174 412.474 110.446 411.129 107.691C408.551 101.544 409.577 96.6217 411.938 90.5625C412.907 88.3425 413.917 86.1662 415 84C416 77.3769 414.298 73.1735 411.114 67.4414C409.443 63.7765 409.633 60.9667 410 57C411.083 57.4641 411.083 57.4641 412.188 57.9375C414.804 58.9256 417.252 59.5288 420 60C420.99 58.35 421.98 56.7 423 55Z" fill="#2196F3"/>
<path d="M1011 70C1013.54 70.5428 1014.88 70.9053 1016.94 72.5625C1019.58 74.4074 1020.83 74.5412 1024 74C1026.79 72.1018 1026.79 72.1018 1029 70C1030.75 70.5625 1030.75 70.5625 1033 72C1033.56 73.155 1034.11 74.31 1034.69 75.5C1035.98 78.0154 1036.59 78.8355 1039.25 79.9023C1041.5 80.3848 1043.71 80.7604 1046 81C1046 84.3023 1045.52 86.3861 1043.36 88.9219C1040.37 91.6787 1037.72 93.7075 1033.94 95.25C1030.2 94.9317 1028.67 93.4339 1025.79 91.168C1022.74 89.1751 1020.5 89.363 1017 90C1014.98 91.6463 1012.98 93.3127 1011 95C1008.12 95.75 1008.12 95.75 1005 95C1000.66 92.1552 997.588 89.3484 995.5 84.5625C995.335 83.7169 995.17 82.8712 995 82C997 80 997 80 1000.75 79.9375C1003.83 79.6674 1004.75 79.2788 1006.86 76.9375C1008.35 74.6695 1009.72 72.3931 1011 70Z" fill="white"/>
<path d="M410 22C412.884 23.293 414.872 24.6594 417 27C420.113 26.3313 420.113 26.3313 421.188 23.9375C421.456 23.2981 421.724 22.6587 422 22C423.875 22.3125 423.875 22.3125 426 23C426.66 23.99 427.32 24.98 428 26C431.821 25.4693 434.062 24.503 437 22C437 25 437 25 435 27.1875C434.34 27.7856 433.68 28.3838 433 29C433.708 32.0932 433.708 32.0932 436.062 33.5C436.702 33.995 437.341 34.49 438 35C438 35.99 438 36.98 438 38C435.5 39.6875 435.5 39.6875 433 41C434.004 43.2407 434.878 44.8775 436.625 46.625C437.079 47.0788 437.532 47.5325 438 48C438 48.66 438 49.32 438 50C433.125 48.25 433.125 48.25 432 46C430.68 46 429.36 46 428 46C426.974 47.3134 425.973 48.6466 425 50C424.01 50 423.02 50 422 50C421.34 48.68 420.68 47.36 420 46C416.227 46.5098 414.55 47.207 412 50C411.34 50 410.68 50 410 50C411.152 47.532 412.048 45.9522 414 44C414 42.68 414 41.36 414 40C412.68 39.34 411.36 38.68 410 38C410 36.68 410 35.36 410 34C412 32.25 412 32.25 414 31C413.426 27.6719 412.406 26.3016 410 24C410 23.34 410 22.68 410 22Z" fill="#2196F3"/>
</g>
<defs>
<clipPath id="clip0_13_3">
<rect width="1080" height="170" fill="white"/>
</clipPath>
</defs>
</svg>
